<svg
        xmlns="http://www.w3.org/2000/svg"
        xmlns:xlink="http://www.w3.org/1999/xlink"
        width="32px" height="32px">
    <path fill-rule="evenodd"  fill="rgb(0, 115, 174)"
          d="M15.993,31.999 C7.167,32.002 -0.004,24.820 0.002,15.983 C0.007,7.182 7.190,0.009 16.000,0.008 C24.830,0.006 32.011,7.184 32.009,16.010 C32.007,24.842 24.840,31.997 15.993,31.999 ZM16.156,2.007 C8.349,1.961 2.072,8.209 2.013,15.809 C1.951,23.697 8.178,29.984 15.997,30.003 C23.686,30.023 29.981,23.763 30.010,16.067 C30.039,8.381 23.782,2.052 16.156,2.007 ZM17.348,24.075 C16.878,24.544 16.278,24.568 15.860,24.150 C15.443,23.732 15.470,23.132 15.939,22.662 C17.671,20.928 19.404,19.194 21.143,17.467 C21.262,17.347 21.424,17.272 21.567,17.177 C21.535,17.122 21.502,17.065 21.470,17.010 C21.306,17.010 21.141,17.010 20.977,17.010 C16.432,17.010 11.886,17.010 7.341,17.008 C7.181,17.008 7.019,17.012 6.862,16.990 C6.357,16.920 5.999,16.498 6.006,15.994 C6.014,15.487 6.381,15.078 6.889,15.022 C7.048,15.006 7.209,15.011 7.369,15.011 C11.927,15.010 16.486,15.010 21.045,15.010 C21.187,15.010 21.328,15.010 21.470,15.010 C21.481,14.973 21.492,14.937 21.502,14.899 C20.417,13.821 19.331,12.742 18.247,11.662 C17.482,10.900 16.719,10.137 15.958,9.372 C15.469,8.881 15.437,8.279 15.869,7.857 C16.292,7.445 16.884,7.476 17.358,7.950 C19.781,10.368 22.203,12.789 24.622,15.211 C25.154,15.744 25.151,16.275 24.614,16.812 C22.194,19.236 19.772,21.656 17.348,24.075 Z"/>
</svg>