<svg
        xmlns="http://www.w3.org/2000/svg"
        xmlns:xlink="http://www.w3.org/1999/xlink"
        width="33px" height="48px">
    <path fill-rule="evenodd"  fill="rgb(255, 255, 255)"
          d="M24.403,31.530 C22.033,34.762 19.516,37.892 17.046,41.055 C16.429,41.845 15.679,41.865 15.062,41.135 C10.767,36.052 6.752,30.780 3.464,25.022 C2.131,22.686 0.936,20.286 0.319,17.662 C-0.336,14.879 0.090,12.177 1.234,9.612 C3.657,4.180 7.967,1.033 14.011,0.103 C14.353,0.050 14.701,0.028 15.048,0.012 C15.378,-0.003 15.710,0.009 16.041,0.009 C23.812,-0.002 30.571,5.563 31.814,12.896 C32.301,15.769 31.724,18.441 30.571,21.059 C28.934,24.780 26.813,28.244 24.403,31.530 ZM29.552,13.075 C28.289,6.092 21.183,1.134 13.897,2.326 C9.018,3.124 5.502,5.768 3.444,10.119 C2.373,12.383 1.951,14.780 2.511,17.259 C3.045,19.620 4.144,21.767 5.340,23.865 C8.139,28.776 11.532,33.299 15.093,37.711 C15.385,38.072 15.684,38.428 16.002,38.815 C16.138,38.673 16.247,38.579 16.332,38.467 C18.303,35.903 20.323,33.373 22.228,30.763 C24.649,27.447 26.859,24.002 28.521,20.256 C29.542,17.953 30.010,15.606 29.552,13.075 ZM16.199,20.649 C12.514,20.619 9.559,17.733 9.587,14.191 C9.615,10.652 12.619,7.816 16.311,7.842 C19.995,7.869 22.898,10.770 22.868,14.394 C22.840,17.831 19.804,20.679 16.199,20.649 ZM16.201,9.990 C13.797,9.989 11.834,11.936 11.846,14.309 C11.857,16.596 13.857,18.506 16.234,18.499 C18.645,18.493 20.617,16.579 20.608,14.254 C20.598,11.876 18.650,9.991 16.201,9.990 ZM1.418,39.088 C2.801,37.876 4.504,37.261 6.253,36.755 C6.978,36.545 7.725,36.402 8.465,36.242 C9.202,36.082 9.793,36.427 9.933,37.081 C10.059,37.677 9.614,38.206 8.897,38.371 C8.000,38.578 7.089,38.757 6.225,39.060 C5.300,39.385 4.418,39.830 3.529,40.247 C3.296,40.356 3.095,40.540 2.903,40.714 C2.068,41.468 2.075,42.126 2.946,42.847 C4.024,43.740 5.330,44.207 6.661,44.597 C10.083,45.598 13.598,45.856 17.153,45.769 C20.357,45.690 23.512,45.313 26.525,44.203 C27.320,43.909 28.063,43.473 28.803,43.059 C29.079,42.904 29.311,42.647 29.508,42.397 C29.854,41.958 29.872,41.476 29.471,41.089 C29.021,40.654 28.516,40.244 27.965,39.941 C26.504,39.135 24.886,38.732 23.256,38.379 C22.500,38.216 22.143,37.742 22.263,37.083 C22.375,36.466 22.894,36.119 23.644,36.262 C25.826,36.676 27.945,37.275 29.821,38.484 C30.731,39.071 31.511,39.785 31.852,40.826 C32.269,42.097 31.869,43.193 30.957,44.127 C29.838,45.273 28.395,45.913 26.888,46.424 C24.648,47.182 22.330,47.596 19.969,47.774 C18.436,47.890 16.899,47.946 15.906,47.999 C11.531,47.843 7.734,47.503 4.163,46.034 C3.232,45.651 2.323,45.138 1.537,44.525 C-0.462,42.964 -0.481,40.752 1.418,39.088 Z"/>
</svg>