<svg
        xmlns="http://www.w3.org/2000/svg"
        xmlns:xlink="http://www.w3.org/1999/xlink"
        width="38px" height="38px">
    <path fill-rule="evenodd"  fill="rgb(255, 255, 255)"
          d="M37.119,17.997 C37.055,18.006 36.998,18.013 36.934,18.013 C36.412,18.013 35.954,17.645 35.865,17.115 C35.231,13.375 33.463,9.965 30.747,7.253 C28.031,4.548 24.616,2.775 20.872,2.141 C20.277,2.037 19.884,1.483 19.980,0.889 C20.085,0.303 20.639,-0.098 21.226,0.006 C25.420,0.721 29.236,2.695 32.274,5.728 C35.311,8.761 37.288,12.573 38.003,16.762 C38.107,17.348 37.705,17.909 37.119,17.997 ZM20.928,6.899 C23.475,7.333 25.798,8.536 27.638,10.374 C29.478,12.212 30.683,14.531 31.117,17.075 C31.213,17.669 30.819,18.230 30.225,18.327 C30.160,18.334 30.104,18.343 30.040,18.343 C29.518,18.343 29.060,17.973 28.971,17.444 C28.610,15.342 27.621,13.432 26.095,11.907 C24.568,10.382 22.656,9.387 20.551,9.034 C19.956,8.938 19.570,8.368 19.675,7.782 C19.779,7.196 20.334,6.803 20.928,6.899 ZM13.729,14.049 C13.134,14.651 12.524,15.277 11.865,15.879 C12.355,16.962 13.030,18.030 14.034,19.297 C16.107,21.841 18.269,23.807 20.647,25.316 C20.880,25.460 21.153,25.597 21.442,25.741 C21.643,25.846 21.852,25.950 22.061,26.062 L24.600,23.535 C25.412,22.724 26.360,22.299 27.348,22.299 C28.345,22.299 29.285,22.732 30.064,23.543 L34.475,27.964 C35.287,28.766 35.713,29.721 35.713,30.717 C35.713,31.703 35.295,32.666 34.499,33.493 C34.154,33.854 33.800,34.199 33.455,34.528 C32.949,35.018 32.467,35.475 32.049,35.981 C32.041,35.997 32.025,36.005 32.017,36.021 C30.795,37.345 29.236,38.011 27.380,38.011 C27.220,38.011 27.043,38.003 26.874,37.995 C24.118,37.818 21.651,36.783 19.803,35.909 C14.966,33.573 10.732,30.259 7.212,26.062 C4.312,22.580 2.367,19.330 1.066,15.823 C0.535,14.394 -0.156,12.212 0.037,9.869 C0.166,8.416 0.752,7.164 1.781,6.137 L4.513,3.385 C4.521,3.377 4.521,3.377 4.529,3.369 C5.332,2.598 6.280,2.189 7.261,2.189 C8.241,2.189 9.173,2.598 9.952,3.369 C10.475,3.850 10.981,4.364 11.463,4.861 C11.704,5.118 11.961,5.375 12.210,5.623 L14.404,7.814 C16.091,9.499 16.091,11.682 14.404,13.367 C14.179,13.592 13.954,13.825 13.729,14.049 ZM12.877,9.347 L10.684,7.156 C10.426,6.892 10.169,6.635 9.920,6.378 C9.430,5.872 8.964,5.399 8.474,4.941 C8.466,4.934 8.458,4.925 8.450,4.917 C8.193,4.661 7.783,4.356 7.277,4.356 C6.867,4.356 6.449,4.556 6.055,4.925 L3.315,7.662 C2.649,8.328 2.287,9.106 2.207,10.045 C2.086,11.514 2.359,13.070 3.106,15.069 C4.320,18.343 6.152,21.392 8.892,24.690 C12.210,28.646 16.204,31.768 20.752,33.966 C22.415,34.761 24.632,35.692 27.019,35.844 C27.139,35.852 27.268,35.852 27.388,35.852 C28.642,35.852 29.598,35.443 30.410,34.576 C30.908,33.991 31.438,33.469 31.960,32.972 C32.306,32.634 32.627,32.330 32.941,31.993 C33.760,31.142 33.760,30.299 32.933,29.481 L28.505,25.059 C28.497,25.051 28.497,25.051 28.489,25.043 C28.240,24.770 27.830,24.457 27.332,24.457 C26.826,24.457 26.392,24.786 26.119,25.059 L23.371,27.804 C23.234,27.940 22.817,28.357 22.150,28.357 C21.884,28.357 21.627,28.293 21.354,28.157 C21.322,28.141 21.290,28.117 21.258,28.101 C21.025,27.956 20.752,27.820 20.462,27.675 C20.141,27.515 19.803,27.346 19.474,27.138 C16.895,25.508 14.556,23.382 12.339,20.654 L12.331,20.646 C11.109,19.097 10.306,17.797 9.735,16.417 C9.727,16.393 9.719,16.369 9.711,16.345 C9.567,15.887 9.438,15.213 10.129,14.523 C10.137,14.507 10.153,14.499 10.169,14.483 C10.868,13.857 11.511,13.215 12.186,12.525 C12.419,12.300 12.644,12.067 12.877,11.835 C13.729,10.984 13.729,10.198 12.877,9.347 Z"/>
</svg>